<?xml version="1.0" standalone="no"?>
<!DOCTYPE svg PUBLIC "-//W3C//DTD SVG 20010904//EN"
 "http://www.w3.org/TR/2001/REC-SVG-20010904/DTD/svg10.dtd">
<svg version="1.0" xmlns="http://www.w3.org/2000/svg"
 width="128.000000pt" height="128.000000pt" viewBox="0 0 128.000000 128.000000"
 preserveAspectRatio="xMidYMid meet">

<g transform="translate(0.000000,128.000000) scale(0.100000,-0.100000)"
fill="#000000" stroke="none">
<path d="M0 1190 c0 -91 0 -91 23 -80 l22 11 -22 -17 c-21 -15 -23 -24 -23
-126 0 -101 1 -110 17 -103 10 3 30 9 46 12 15 3 30 10 33 15 3 5 11 4 19 -2
8 -6 34 -12 58 -13 28 -1 43 -6 40 -13 -2 -6 3 -17 12 -24 22 -19 18 -58 -10
-85 -25 -26 -22 -33 6 -12 33 25 41 55 25 90 l-16 32 20 -24 c27 -32 25 -57
-7 -90 -25 -24 -37 -27 -100 -29 -46 -2 -85 3 -107 12 l-36 15 0 -105 0 -104
35 -17 c19 -9 35 -20 35 -24 0 -4 -16 -17 -35 -29 l-35 -22 0 -229 0 -229 36
0 c32 0 35 2 23 16 -8 10 -9 18 -2 22 5 4 33 22 62 41 l53 34 -23 19 -24 19
32 -15 c31 -15 32 -15 60 12 15 16 40 32 56 35 15 4 27 11 27 15 0 5 -20 22
-44 39 -73 52 -126 141 -126 212 0 86 81 192 182 239 27 12 67 31 91 42 24 11
49 20 56 20 9 0 11 6 6 18 -4 9 -10 27 -12 39 -3 13 -9 20 -14 17 -5 -3 -14 7
-19 21 -14 36 6 75 45 94 17 8 35 20 40 27 18 23 80 54 106 54 22 0 28 5 31
30 3 17 1 33 -4 36 -14 9 -9 44 7 51 9 3 18 4 20 2 2 -2 0 -43 -4 -91 -6 -81
-5 -88 12 -88 15 0 16 3 7 21 -7 11 -9 23 -6 26 9 10 55 -7 82 -30 20 -18 25
-28 19 -46 -6 -20 -9 -21 -23 -8 -33 28 -47 30 -22 3 21 -23 22 -29 10 -36 -8
-6 -20 -8 -27 -5 -6 2 2 -16 19 -40 25 -35 33 -58 36 -104 4 -54 2 -62 -21
-85 -17 -17 -38 -26 -59 -27 l-33 -1 38 -8 c21 -4 48 -17 60 -29 20 -19 21
-30 19 -123 -2 -102 -11 -128 -41 -128 -42 0 -197 67 -233 101 l-38 36 0 110
c0 136 10 152 65 104 20 -17 41 -31 48 -31 6 0 0 7 -13 17 -14 9 -37 27 -51
40 -26 23 -26 23 -44 3 -10 -11 -20 -41 -23 -70 -4 -48 -14 -62 -27 -40 -10
17 -23 12 -66 -27 -51 -46 -69 -81 -69 -133 0 -51 17 -85 66 -130 21 -19 31
-26 21 -14 -9 11 -17 24 -17 27 0 13 35 7 60 -9 17 -11 14 -7 -8 14 -18 18
-39 47 -47 66 -12 28 -18 33 -40 29 -21 -5 -25 -2 -25 17 0 31 43 103 74 123
28 19 45 7 20 -14 -16 -13 -44 -62 -44 -76 0 -4 11 11 25 33 21 36 63 74 80
74 3 0 -13 -18 -34 -39 -21 -21 -42 -53 -46 -70 -9 -41 9 -92 43 -122 l27 -24
-22 25 c-13 14 -28 40 -34 58 -9 28 -8 39 12 79 13 26 31 49 39 52 8 2 3 -10
-13 -28 -17 -21 -27 -44 -27 -64 0 -37 35 -101 50 -92 6 3 10 0 10 -8 0 -23
98 -59 172 -65 38 -2 68 -9 68 -14 0 -15 86 0 143 24 51 22 107 78 106 106 0
14 -2 13 -9 -3 -4 -12 -15 -27 -24 -34 -14 -12 -14 -10 0 19 11 22 14 45 10
73 -6 40 -5 41 10 22 l17 -20 -8 20 c-4 11 -10 33 -13 49 -3 18 -15 34 -33 45
-26 14 -40 41 -22 41 19 0 101 -64 123 -96 45 -68 24 -201 -30 -187 -18 5 -18
7 -5 34 8 15 15 34 15 41 -1 7 -7 -1 -14 -17 -25 -58 -90 -103 -186 -131 -35
-10 -39 -13 -18 -13 15 -1 37 3 51 8 13 5 30 5 37 1 10 -6 0 -12 -33 -21 -26
-6 -46 -14 -43 -16 3 -3 36 4 74 16 238 72 258 274 37 389 -22 12 -33 21 -25
21 26 1 115 -56 148 -93 18 -20 35 -48 38 -62 5 -19 9 -22 15 -12 5 7 9 16 9
19 0 16 -129 131 -168 150 -39 19 -42 23 -29 37 12 11 22 12 44 4 61 -22 66
-21 18 2 l-50 25 41 -2 c23 -1 40 -5 38 -8 -2 -4 3 -10 12 -13 8 -3 12 -2 9 4
-3 6 3 10 15 10 12 0 31 5 43 12 12 6 48 13 80 15 57 3 89 14 114 38 12 13 8
25 -9 25 -5 0 -6 -5 -2 -11 10 -17 -2 -11 -160 76 -99 55 -140 82 -130 88 18
10 97 -30 88 -45 -5 -8 -1 -9 10 -5 11 5 15 3 10 -4 -4 -7 -1 -10 7 -7 20 7
71 -21 63 -34 -5 -7 -2 -9 9 -5 10 4 16 2 14 -5 -1 -6 4 -13 12 -16 9 -3 11 0
6 8 -6 9 -3 9 14 0 12 -6 18 -16 15 -22 -5 -8 -1 -9 10 -5 9 4 31 0 47 -8 31
-17 49 -13 49 10 0 13 -370 217 -605 333 -60 31 -141 72 -178 94 l-69 38 -214
0 -214 0 0 -90z m379 -8 c16 -12 27 -31 29 -49 8 -82 -169 -114 -239 -44 -43
43 -25 88 46 111 44 14 134 4 164 -18z m-124 -282 c3 -6 -1 -7 -9 -4 -18 7
-21 14 -7 14 6 0 13 -4 16 -10z m576 -126 c-12 -15 -21 -41 -21 -60 0 -19 -4
-34 -10 -34 -5 0 -10 19 -10 42 0 43 21 78 47 78 11 0 9 -7 -6 -26z m-532 -31
c-28 -18 -53 -32 -55 -30 -2 2 16 16 41 31 24 16 42 32 39 37 -3 5 2 6 11 3
12 -5 3 -15 -36 -41z m542 3 c-9 -19 -17 -27 -19 -19 -3 11 23 53 33 53 1 0
-5 -15 -14 -34z m-611 -41 c0 -6 -85 -55 -96 -55 -5 0 14 13 41 30 55 32 55
32 55 25z m190 -109 c0 -3 -4 -8 -10 -11 -5 -3 -10 -1 -10 4 0 6 5 11 10 11 6
0 10 -2 10 -4z m443 -22 c3 -4 1 -16 -5 -28 -10 -19 -9 -20 5 -8 14 12 15 10
4 -18 -10 -25 -13 -28 -19 -13 -4 12 -7 6 -7 -19 -1 -41 -3 -43 -32 -28 -21
12 -26 68 -9 101 10 18 49 26 63 13z m-425 -98 c-9 -29 -8 -40 9 -68 19 -34
86 -79 113 -77 8 1 17 0 20 -1 3 -1 32 -8 65 -15 45 -9 52 -13 28 -14 -53 -2
-135 19 -183 47 -25 15 -48 27 -52 27 -3 0 -10 4 -15 9 -5 5 -3 6 5 2 14 -8
17 10 2 19 -19 12 -10 105 10 105 5 0 3 -15 -2 -34z m29 -38 c4 -27 28 -55 68
-79 35 -22 26 -25 -13 -5 -39 20 -61 48 -68 87 -4 19 -3 31 1 26 5 -4 10 -17
12 -29z m423 -1 c0 -7 -7 -22 -15 -33 -13 -17 -13 -16 -3 14 13 34 18 40 18
19z m-536 -52 c20 -31 20 -32 -4 -38 -15 -4 -24 2 -35 23 -19 37 -19 40 4 40
10 0 26 -11 35 -25z"/>
<path d="M213 1176 c-39 -18 -44 -53 -12 -82 45 -41 179 -14 179 36 0 45 -105
74 -167 46z m147 -50 c0 -8 -7 -16 -15 -20 -12 -4 -13 -2 -2 14 14 24 17 25
17 6z"/>
<path d="M520 1265 c14 -8 84 -44 156 -79 113 -54 298 -151 542 -283 l62 -33
0 127 0 128 -153 78 -152 78 -240 -1 c-216 -1 -237 -2 -215 -15z m718 -165
c31 0 28 -7 -10 -24 l-33 -14 32 -1 c17 -1 34 -5 38 -10 7 -13 -78 -25 -112
-16 l-28 8 30 13 c26 12 29 16 9 13 -8 -1 -24 22 -24 35 0 4 17 5 38 2 20 -3
47 -6 60 -6z"/>
<path d="M1071 1276 c7 -7 196 -106 203 -106 3 0 6 25 6 55 l0 55 -107 0 c-58
0 -104 -2 -102 -4z"/>
<path d="M960 930 c19 -11 40 -19 45 -19 6 0 -6 8 -25 19 -19 11 -39 19 -45
19 -5 0 6 -8 25 -19z"/>
<path d="M499 901 c-33 -27 -32 -86 3 -137 43 -65 196 -118 228 -79 15 18 15
70 2 106 -14 36 -69 97 -103 115 -40 20 -102 18 -130 -5z m79 -53 c14 -14 16
-54 2 -63 -25 -15 -71 39 -55 65 8 14 38 13 53 -2z m120 -50 c15 -15 16 -55 2
-63 -28 -17 -76 46 -53 68 10 11 38 8 51 -5z"/>
<path d="M1064 876 c11 -9 24 -16 30 -16 12 0 7 5 -24 19 -24 11 -24 11 -6 -3z"/>
<path d="M60 871 l-25 -7 22 -12 c31 -17 43 -15 43 8 0 21 -2 22 -40 11z"/>
<path d="M112 864 c4 -21 18 -27 38 -14 17 10 14 15 -18 25 -19 6 -23 4 -20
-11z"/>
<path d="M12 838 c-7 -7 -12 -16 -12 -20 0 -11 38 -10 45 2 3 5 13 7 23 4 9
-3 6 2 -8 10 -31 19 -33 19 -48 4z"/>
<path d="M151 836 c-9 -11 -6 -15 15 -20 31 -8 39 -3 31 19 -8 19 -31 20 -46
1z"/>
<path d="M62 792 c-7 -9 -10 -11 -7 -4 4 8 -3 12 -22 12 l-28 -1 24 -19 c27
-23 71 -27 71 -6 0 25 -24 37 -38 18z"/>
<path d="M154 796 c23 -19 32 -20 41 -6 3 6 0 10 -9 10 -8 0 -23 3 -33 6 -16
5 -16 4 1 -10z"/>
<path d="M110 776 c0 -19 4 -22 25 -18 30 5 32 18 6 32 -28 14 -31 13 -31 -14z"/>
<path d="M1220 729 c-30 -21 -71 -47 -90 -58 -68 -39 -67 -38 -35 -63 16 -13
33 -22 37 -21 5 2 7 0 6 -5 -4 -14 13 -52 23 -52 6 0 8 4 5 8 -2 4 5 8 17 9
l22 1 -21 -14 c-19 -13 -20 -19 -11 -53 16 -58 -5 -138 -50 -190 -19 -23 -34
-43 -32 -45 16 -12 183 -96 186 -93 2 2 2 141 1 309 l-3 305 -55 -38z"/>
<path d="M330 684 c-118 -55 -181 -136 -179 -231 0 -27 4 -57 8 -68 6 -13 8 3
8 45 -1 48 5 76 21 107 25 48 95 108 160 137 23 10 42 23 42 28 0 11 3 12 -60
-18z"/>
<path d="M345 631 c-88 -54 -135 -147 -109 -215 9 -25 24 -8 24 27 1 47 32
107 74 145 20 17 41 32 46 32 6 0 10 7 10 15 0 20 -9 19 -45 -4z"/>
<path d="M1079 586 c58 -68 78 -144 52 -206 -9 -21 -9 -18 -5 20 l4 45 -14
-50 c-8 -27 -15 -51 -16 -53 0 -2 6 0 13 4 7 4 9 3 4 -2 -5 -5 -12 -9 -15 -10
-4 0 -29 -21 -56 -47 -142 -136 -390 -166 -663 -79 -50 16 -39 4 20 -22 110
-49 318 -64 451 -32 145 34 269 119 296 201 28 83 -13 211 -80 254 -21 13 -20
10 9 -23z"/>
<path d="M534 596 c-3 -7 -4 -41 -2 -75 l3 -62 70 -24 c39 -13 76 -24 83 -25
14 0 17 116 4 137 -9 14 -116 63 -138 63 -8 0 -17 -6 -20 -14z m113 -59 c42
17 53 -1 13 -22 l-30 -16 26 -34 c14 -19 22 -35 16 -35 -6 0 -20 13 -32 30
-18 25 -24 28 -46 20 -37 -15 -40 -12 -16 13 20 21 20 25 7 43 -8 10 -15 25
-15 33 0 8 10 1 23 -15 21 -29 23 -30 54 -17z"/>
<path d="M1055 454 c-32 -148 -136 -228 -327 -253 -58 -8 -59 -9 -18 -10 108
-2 258 55 314 120 29 35 35 49 38 102 4 70 2 83 -7 41z"/>
<path d="M265 385 c4 -11 8 -26 9 -32 3 -20 48 -63 94 -90 44 -26 151 -63 180
-63 10 1 -15 11 -55 24 -117 38 -178 80 -217 151 -10 17 -14 21 -11 10z"/>
<path d="M220 306 c0 -2 8 -10 18 -17 15 -13 16 -12 3 4 -13 16 -21 21 -21 13z"/>
<path d="M454 296 c11 -9 24 -16 30 -16 12 0 7 5 -24 19 -24 11 -24 11 -6 -3z"/>
<path d="M397 279 c7 -7 15 -10 18 -7 3 3 -2 9 -12 12 -14 6 -15 5 -6 -5z"/>
<path d="M1003 198 c-28 -16 -87 -38 -130 -50 -141 -38 -393 -25 -490 26 -25
13 -32 10 -137 -57 -144 -90 -145 -91 -109 -106 41 -17 195 -11 201 8 3 10 0
12 -14 7 -10 -4 -15 -4 -11 0 4 4 -7 16 -24 26 -33 20 -34 37 -2 19 15 -8 20
-7 20 4 0 8 -5 11 -11 8 -6 -4 -2 4 9 16 36 41 51 44 118 22 59 -19 123 -32
177 -36 54 -4 156 -17 171 -21 9 -2 16 -11 17 -19 1 -8 3 -22 4 -30 1 -16 7
-13 71 31 18 12 18 12 0 23 -15 10 -14 10 9 5 20 -4 40 3 82 30 31 20 56 32
56 28 0 -4 -23 -20 -50 -37 -28 -16 -50 -33 -50 -37 0 -11 84 -58 103 -58 16
0 21 11 18 38 -1 6 3 12 9 12 6 0 9 4 5 9 -3 5 0 13 6 17 8 5 4 13 -12 26
l-24 19 25 -12 c14 -7 43 -14 65 -15 82 -3 86 -4 79 -15 -3 -6 8 -4 24 5 56
29 57 28 -113 121 l-40 22 -52 -29z"/>
<path d="M593 193 c9 -2 23 -2 30 0 6 3 -1 5 -18 5 -16 0 -22 -2 -12 -5z"/>
<path d="M1245 88 c-50 -36 -85 -71 -79 -80 3 -4 30 -8 60 -8 l54 0 0 55 c0
30 -1 55 -2 55 -2 0 -16 -10 -33 -22z"/>
<path d="M590 30 l-45 -30 41 0 c43 0 64 14 64 42 0 24 -8 23 -60 -12z"/>
<path d="M863 29 c-18 -12 -33 -23 -33 -25 0 -2 33 -4 72 -4 l73 0 -37 25
c-20 14 -38 25 -40 25 -2 0 -18 -10 -35 -21z"/>
</g>
</svg>
